<?xml version="1.0" encoding="utf-8"?>
<!-- Generator: Adobe Illustrator 15.1.0, SVG Export Plug-In . SVG Version: 6.00 Build 0)  -->
<!DOCTYPE svg PUBLIC "-//W3C//DTD SVG 1.1//EN" "http://www.w3.org/Graphics/SVG/1.1/DTD/svg11.dtd">
<svg version="1.1" id="Layer_1" xmlns="http://www.w3.org/2000/svg" xmlns:xlink="http://www.w3.org/1999/xlink" x="0px" y="0px"
	 width="800px" height="200px" viewBox="0 0 800 200" enable-background="new 0 0 800 200" xml:space="preserve">
<text transform="matrix(1 0 0 1 35.2554 86.873)" font-family="'Lobster1.3'" font-size="114.3235">juicy</text>
<text transform="matrix(1 0 0 1 33.4233 84.7852)" fill="#04BBDF" font-family="'Lobster1.3'" font-size="114.3235">juicy</text>
<text transform="matrix(1 0 0 1 218.7778 187.0537)" font-family="'Lobster1.3'" font-size="92.3135">ZESTY</text>
<text transform="matrix(1 0 0 1 216.7778 185.0537)" fill="#F68827" font-family="'Lobster1.3'" font-size="92.3135">ZESTY</text>
<text transform="matrix(0.9689 -0.2475 0.2475 0.9689 464.4883 107.3555)" font-family="'Lobster1.3'" font-size="83.6353">bitter</text>
<g>
	
		<text transform="matrix(0.9689 -0.2475 0.2475 0.9689 462.3809 105.5791)" fill="#27311C" font-family="'Lobster1.3'" font-size="83.6353">bitter</text>
</g>
<text transform="matrix(0.9573 0.289 -0.289 0.9573 564.582 134.9541)" font-family="'Lobster1.3'" font-size="69.9908">SWEET</text>
<text transform="matrix(0.9573 0.289 -0.289 0.9573 564.5195 132.6416)" fill="#EE2A7B" font-family="'Lobster1.3'" font-size="69.9908">SWEET</text>
<path fill="#1C75BC" d="M254,56c0-6.181,4.642-13.245,8-17.5c3.843-4.869-10.189-30-4-30c5.352,0,23.792,18.233,27.5,22
	c4.329,4.396,9,15.861,9,23c0,13.255-9.402,24-21,24S254,69.255,254,56z"/>
<polyline fill="#D1D3D4" stroke="#FFFFFF" stroke-width="2" stroke-miterlimit="10" points="263.501,16.5 272,21 277.5,26.5 
	280.501,33.5 "/>
<polygon fill="#F7941E" stroke="#F26522" stroke-width="2" stroke-miterlimit="10" points="212.453,179.119 185.233,176.306 
	167.482,197.133 161.748,170.375 136.455,159.93 160.131,146.207 162.249,118.924 182.616,137.201 209.219,130.783 198.13,155.802 
	"/>
<polygon fill="#27311C" stroke="#000000" stroke-width="3" stroke-miterlimit="10" points="707.493,28.701 721,30.502 
	669.674,42.208 621.5,53.014 631.405,46.26 643.562,43.108 649.414,35.455 656.168,29.602 667.873,27.801 678.679,32.753 
	693.086,26 "/>
<polyline fill="none" stroke="#000000" stroke-width="3" stroke-miterlimit="10" points="623.5,15.5 632,23.5 630.5,35 637,38.5 "/>
<polyline fill="none" stroke="#000000" stroke-width="3" stroke-miterlimit="10" points="659.274,23.293 648.689,18.373 
	646.496,6.985 639.226,5.707 "/>
<polyline fill="none" stroke="#000000" stroke-width="3" stroke-miterlimit="10" points="675.492,1.5 681.41,11.561 676.749,22.18 
	682.008,27.361 "/>
<polyline fill="none" stroke="#000000" stroke-width="3" stroke-miterlimit="10" points="711.108,24.531 705.558,15.949 
	709.239,6.487 704.446,2.15 "/>
<line fill="none" stroke="#F26522" stroke-width="2" stroke-miterlimit="10" x1="547" y1="151.5" x2="555" y2="163.5"/>
<line fill="none" stroke="#F26522" stroke-width="2" stroke-miterlimit="10" x1="590.5" y1="167" x2="607" y2="163.5"/>
<line fill="none" stroke="#BE1E2D" stroke-width="2" stroke-miterlimit="10" x1="578" y1="180.5" x2="585.5" y2="184"/>
<line fill="none" stroke="#BE1E2D" stroke-width="2" stroke-miterlimit="10" x1="565" y1="173" x2="574" y2="169.5"/>
<line fill="none" stroke="#BE1E2D" stroke-width="2" stroke-miterlimit="10" x1="587.5" y1="157" x2="574.5" y2="151"/>
<line fill="none" stroke="#EF4136" stroke-width="2" stroke-miterlimit="10" x1="543" y1="174.5" x2="556.5" y2="186"/>
<line fill="none" stroke="#EF4136" stroke-width="2" stroke-miterlimit="10" x1="598" y1="177" x2="612.5" y2="182.5"/>
<line fill="none" stroke="#EF4136" stroke-width="2" stroke-miterlimit="10" x1="553.5" y1="174.5" x2="561" y2="168"/>
<line fill="none" stroke="#8DC63F" stroke-width="2" stroke-miterlimit="10" x1="581" y1="192.5" x2="592" y2="195.5"/>
<line fill="none" stroke="#8DC63F" stroke-width="2" stroke-miterlimit="10" x1="563" y1="160.5" x2="573.5" y2="162"/>
<line fill="none" stroke="#27AAE1" stroke-width="2" stroke-miterlimit="10" x1="562.5" y1="185.5" x2="571.5" y2="180"/>
<line fill="none" stroke="#27AAE1" stroke-width="2" stroke-miterlimit="10" x1="588" y1="173" x2="600" y2="170.5"/>
<line fill="none" stroke="#27AAE1" stroke-width="2" stroke-miterlimit="10" x1="553.5" y1="146" x2="563" y2="150"/>
<line fill="none" stroke="#8DC63F" stroke-width="2" stroke-miterlimit="10" x1="597.5" y1="187.5" x2="606.5" y2="190.5"/>
</svg>
